# xmcd CD database file
#
# Track frame offsets:
#	150
#	19181
#	56760
#	68286
#	80099
#	98482
#	126760
#	148536
#	157708
#	181247
#	200800
#	238678
#
# Disc length: 3555 seconds
#
# Revision: 0
# Processed by: cddbd v1.5.1PL2 Copyright (c) Steve Scherf et al.
# Submitted via: CDex 1.51
#
DISCID=980de10c
DTITLE=ディアマイン - ドラマCD
DYEAR=2001
DGENRE=Anime
TTITLE0=迷子
TTITLE1=祝！和久寺家・宝探しツアー
TTITLE2=グッドアイディア
TTITLE3=寿千代と鋼十郎
TTITLE4=それぞれの宝探し
TTITLE5=風茉と咲十子
TTITLE6=意外なことば
TTITLE7=一美と九鉄
TTITLE8=ゴール
TTITLE9=素敵な賞品
TTITLE10=ミニドラマ「Holiday of Lovers」
TTITLE11=ミニドラマ「A Little Dream」
EXTD=YEAR: 2001/11/28
EXTT0=
EXTT1=
EXTT2=
EXTT3=
EXTT4=
EXTT5=
EXTT6=
EXTT7=
EXTT8=
EXTT9=
EXTT10=
EXTT11=
PLAYORDER=
